<svg xmlns="http://www.w3.org/2000/svg" viewBox="0 0 69.79 111.1"><defs><style>.cls-1{fill:#d4af37;}</style></defs><g id="Layer_2" data-name="Layer 2"><g id="OBJECTS"><path class="cls-1" d="M1.14,72.3a13.32,13.32,0,0,0,5.15,7.32c4.07,3.19,8.38,6,12.33,9.35,7.74,6.55,14.56,14.3,22.54,20.54.11.19.2.38.3.56,1.17,2.12,4.18.64,3.86-1.39a2.25,2.25,0,0,0,.28-1.11c0-5.54-.36-11.64-2.05-17,10.2-2,19-8.51,23-18.19,3.32-8,3.81-16.76,2.68-25.31C69.73,29.22,57.77,9.32,43,.17a1,1,0,0,0-1.13,0,1,1,0,0,0-.68,1.36C44.82,11.13,48.23,21,46,31.43a27,27,0,0,1-6.68,13.12c-3.33,3.49-7.34,5.22-11.65,7-.06-1.07,0-2.27-.07-2.89-.14-1.22-.3-2.44-.5-3.65a29.26,29.26,0,0,0-2.16-8,1.07,1.07,0,0,0-2-.53c-3.63,5.28-6.53,11-10.26,16.23S3.84,62.25.39,67.54A2.73,2.73,0,0,0,.8,70.85,10.86,10.86,0,0,0,1.14,72.3ZM45.65,86c-1-2.49-2.09-5-3.23-7.42l1.26-.26a75.92,75.92,0,0,1,2.7,7.49Zm3.11-1A56.57,56.57,0,0,0,45.25,78a37.42,37.42,0,0,0,7.33-2.86c.47,1.18.93,2.37,1.37,3.58.34.92.62,1.87,1,2.76A24.58,24.58,0,0,1,48.76,85ZM60.76,75a44,44,0,0,0-2-4c.41-.35.81-.72,1.19-1.1.16.38.32.77.5,1.15a25.5,25.5,0,0,0,1.15,2.6C61.31,74.07,61,74.51,60.76,75Zm5.1-13.51a41.38,41.38,0,0,1-3.06,9.79l-.61-1c-.35-.57-.7-1.12-1.06-1.67A30.26,30.26,0,0,0,65.86,61.44Zm-6.6,15.65a27.45,27.45,0,0,1-2.39,2.67c-.36-.78-.77-1.53-1.15-2.28l-1.64-3.22a30.48,30.48,0,0,0,3.22-2.14C57.91,73.8,58.5,75.49,59.26,77.09Zm-16,9.47c-.45.08-.89.17-1.35.24a.53.53,0,0,0-.12,0,39.84,39.84,0,0,0-3-3.67c-1.11-1.28-2.2-2.56-3.28-3.86a37.1,37.1,0,0,0,5-.37C41.37,81.5,42.32,84,43.29,86.56ZM40.9,93.21c-1.66-1.86-3.49-3.62-5.24-5.34l-.36-2.11c-.07-.43-.14-.86-.22-1.3a33.66,33.66,0,0,0,5.83,5.33,1.64,1.64,0,0,0,.2.26C41,91.09,40.94,92.15,40.9,93.21Zm0,7.55q-2.07-3.36-4.27-6.63a2.6,2.6,0,0,0-.31-.74l-.22-.33c0-.54,0-1.08,0-1.61l1,1.24c1.24,1.57,2.43,3.3,3.8,4.78C40.84,98.57,40.86,99.67,40.89,100.76Zm23-54.13C63.61,55,60.09,63.21,53.15,68.1,46.59,72.73,39,73.41,31.22,73.73A3.12,3.12,0,0,0,30,74a2.23,2.23,0,0,0-1.71,2.15c.14,3.49,1.15,6.83,2,10.2l.15.59c-3-2.47-6.31-4.6-9.32-6.77s-6.08-4.39-9.2-6.47A52.16,52.16,0,0,0,6,70c4.33-3.81,7.76-9.46,10.66-14.21a72.92,72.92,0,0,0,6.81-13.49c.21,1.7.47,3.4.59,5.08a68.64,68.64,0,0,0,.56,8.12,1.74,1.74,0,0,0,2.19,1.4,3.11,3.11,0,0,0,1.54.09c11.2-2,19.75-11.62,22.4-22.36,2.08-8.44.84-17.48-2.62-25.48C57.17,19.73,64.32,32.44,63.88,46.63ZM36,99.16,34.5,97.61a3,3,0,0,0,.61-.26C35.38,98,35.67,98.55,36,99.16Z"/></g></g></svg>